<svg width="190" height="43" viewBox="0 0 190 43" fill="none" xmlns="http://www.w3.org/2000/svg">
<path d="M120.967 17.5898L112.457 2.8501H129.477L120.967 17.5898Z" fill="url(#paint0_linear_43_40)"/>
<path d="M55.385 21.1836C55.385 33.3728 46.3907 42.3671 34.3199 42.3671C23.0772 42.3671 14.4975 34.497 13.4319 23.5504H5.858V41.8938H0V0.473271H5.858V18.2249H13.4912C14.8523 7.57394 23.3135 0 34.3199 0C46.3907 0 55.385 8.99429 55.385 21.1836ZM49.4678 21.1836C49.4678 11.8937 42.8996 5.3255 34.3199 5.3255C25.8581 5.3255 19.2905 11.8937 19.2905 21.1836C19.2905 30.4734 25.8586 37.0416 34.3199 37.0416C42.8996 37.0416 49.4678 30.4734 49.4678 21.1836Z" fill="black"/>
<path d="M92.0129 5.62097H70.7109L70.7701 41.8932H64.9121V0.473145H92.0721L92.0129 5.62097Z" fill="black"/>
<path d="M137.161 41.8937L137.101 11.7159L122.131 36.8638H119.409L104.438 11.893V41.8932H98.7578V0.473145H103.61L120.888 29.5855L137.929 0.473145H142.782L142.841 41.8937H137.161Z" fill="black"/>
<path d="M169.822 23.6688H161.184V41.8937H155.385V0.473145H161.184V18.4612H169.941L182.958 0.473145H189.29L174.497 20.5325L190 41.8937H183.254L169.822 23.6688Z" fill="black"/>
<defs>
<linearGradient id="paint0_linear_43_40" x1="112.457" y1="10.2199" x2="129.476" y2="10.2199" gradientUnits="userSpaceOnUse">
<stop stop-color="#D63C16"/>
<stop offset="1" stop-color="#F08500"/>
</linearGradient>
</defs>
</svg>
